P1
# CREATOR: GIMP PNM Filter Version 1.1
32 320
0000000000000000000000000000000000000000000000000000000000000000000000
0000000000000000000000000000000000000000000000000000000000000000000000
0000000000000000000000000000000000000000000000000000000000000000000000
0000000000000000000000000000000000000000000000000000000000000000000000
0110000000000000000000000000000011110000000000000000000000000000111110
0000000000000000000000000011111000000000000000011100000001111111000000
0000000011111000000111111100000000000000111110000001111111100000000000
0011111100001111011110000000000001111111000011110011110000111000011111
1110001111001111000111110011111111100111100001100011111100111101111001
1110000000011111111111110011110111100000001111111111111000111111110000
0000111110111111100001111111000000001111000111110000011111110000000000
0000001111000000111110000000000000000011100000001111100000000000000000
0000000000111110000000000000000000000000000111000000000000000000000000
0000001000000000000000000000000000000000000000000000000000000000000000
0000000000000000000000000000000000000000000000000000000000000000000000
0000000000000000000000000000000000000000000000000000000000000000000000
0000000000000000000001110000000000000000000000000000111110000000000000
0000000000000111111000000000000000000000000001111110000000000000000000
0000000111111000000000000000000000011101111110000000000000000000011111
1111000000000000000000000111111111110000000000000000000011111011111100
0000110000000000011111001111111000011100000000001111000111111110011111
0000000000011001111111111111111000000000000000111111100111111100000000
0000001111111100001111000000000000000111111111000011100000000000000011
1111111111000000000000000000111111000111110000000000000000011111000000
1111000000000000000011111000001111110000000000000011111100000111110000
0000000000001111000000011110000000000000000011100000000111000000000000
0000000000000000000000000000000000000000000000000000000000000000000000
0000000000000000000000000000000000000000000000000000000000000000000000
0000000000000000000000000000000000000000000000000000000000000000000000
0000000000000000000000000000000000000000000000000000000000000000000000
0000000000000000000000000000000000000000000000000000000000000001111111
1000000000000000000001111111111110000000000000000011111111111111100000
0000000000001111111111111110000000000000000011111111111111100000000000
0000001111111111111110000000000000000011111000000001100000000000000000
1100000000000110000000000000000011000000000001100000000000000000110000
0000000110000000000000000011000000000001100000000000000000110000000000
0110000000000000000011000000000001100000000000000000110000000000011000
0000000000000011000000000001100000000000000000110000000111111000000000
0000000011000000111111100000000000000000110000011111111000000000000011
1111000001111111100000000000111111110000011111110000000000001111111100
0001111111000000000001111111100000001111100000000000011111111000000000
0000000000000000111111100000000000000000000000000111100000000000000000
0000000000000000000000000000000000000000000000000000000000000000000000
0000000000000000000000000000000000000000000000000000000000000000000000
0000000000000000000000000000000000000000000000000000000000000000000000
0000000000000000000000000000001111111100000000000000000000001111111111
1100000000000000000011111111111111110000000000000001111000000000011110
0000000000001111000000000000111100000000000111100000000000011111100000
0000011111100000000011111110000000001111111111000000111111110000000111
1111111100000111111111100000011101111110000000101111111000000111001111
0000000110011111100000011100110000000011111111111000000111000000000001
1111111011100000011100000001000011111100111000000111000000111000011111
0011100000011100000011111000111100111000000111100000111110000110011110
0000001110000001110000011011110000000001110000011100000110111000000000
0111100001100000010111100000000000111100010000000011110000000000000111
1011000000011110000000000000001111111111111111000000000000000000111111
1111110000000000000000000000111111110000000000000000000000000000000000
0000000000000000000000000000000000000000000000000000000000000000000000
0000000000000000000000000000000000000000000000000000000000000000000000
0000001100000110000011000000000000000111100011110001111000000000000011
0011011001101100110000000000000100100010010001001000000000001111001111
1001111100111100000000111100111110011111001111000000001111001111100111
1100111100000000111100111110011111001111000000001111111111111111111111
1100000000111111111111111111111111000000001100000000000000000000110000
0000110000000000000000000011000000001100000000000000000000110000000011
0000011100000011000011000000001100001111110011110000110000000011000000
0111001111000011000000001100000001110001110000110000000011000001110000
0111000011000000001100000111110001110000110000000011000000001100011100
0011000000001100000000110001110000110000000011000011111100011100001100
0000001100001111100001110000110000000011000000000000000000001100000000
1100000000000000000000110000000011000000000000000000001100000000110101
0101010101010100110000000011111111111111111111111100000000111111111111
1111111111110000000000000000000000000000000000000000000000000000000000
0000000000000000000000000000000000000000000000000000000000000000000000
0000000000001111000000011110000000000000000111111000001111110000000000
0000111111110001111111100000000000011111111111111111111110000000000111
1111111111111111111000000000111111111111111111111111000000011100000000
0000000000001110000001100000000000000000000001100000011000000000000000
0000000110000001100000000000000000000001100000011000000000000000000000
0110000001100000000000000000000001100000011000000000000000000000011000
0001100001000011110011110001100000011000110000100100000100011000000110
0101010010010001110001100000011000010000100100000100011000000110000100
0010010000010001100000011000010100111100111100011000000110000000000000
0000000001100000011000000000000000000000011000000110000000000000000000
0001100000011000000000000000000000011000000110000000000000000000000110
0000011000000000000000000000011000000111000000000000000000001110000000
1111111111111111111111110000000011111111111111111111111000000000001111
1111111111111111000000000000000000000000000000000000000000000000000000
0000000000000000000000000000000000000000000000000000000000000000000000
0000000000000001111111111111111111111000000000011111111111111111111111
0000000011111111111111111111111100000000111111111111111111111111000000
0011111111111111111111111100000000111111111111111111111111000000001111
1111111111111111111100000000111111111111111111111111000000001110000111
1000011111011100000000110111101101111011100111000000001111111011111110
1101011100000000111111101111111011110111000000001111000111111110111101
1100000000111111101111110111110111000000001111111011110011111101110000
0000110111101110111111110111000000001110000011000000111101110000000011
1111111111111111111111000000001111111111111111111111110000000011111111
1111111111111111000000001111111111111111111111110000000011111111111111
1111111111000000001111111111111111111111110000000011111111111111111111
1111000000000111111111111111111111100000000000000000000000000000000000
0000000000000000000000000000000000000000000000000000000000000000000000
0000000000000000000000000000000000000000000000000000000000000000000000
0000000000000000000000000000000000000000000000000000000000011111111111
1111111111100000000011111111111111111111111100000001111111111111111111
1111111000000111111111111111111111111110000001111111100011111001111111
1000000111111100100111100111111110000001111111011101110101111111100000
0111111101110110110111111110000001111111011101101101111111100000011111
1101110110000011111110000001111111001001111101111111100000011111111000
1111110111111110000001111111111111111111111111100000011111111111111111
1111111110000001111111000011100000111111100000011111110111011011111111
1110000001111111111101101111111111100000011111111111011000001111111000
0001111111111011111110111111100000011111111001111111101111111000000111
1111001111111110111111100000011111110000011000001111111000000111111111
1111111111111111100000011111111111111111111111110000000011111111111111
1111111110000000000111111111111111111111000000000000000000000000000000
0000000000000000000000000000000000000000000000000000000000000000000000
0000000000000000000000000000000000000000000000000000000000000000000000
0000000000000000000000000000000000000001111111110000000000000000000000
1111111111110000000000000000000111111111111110000000000000000111111111
1111111110000000000000111110000000001111100000000000001111000000000000
1111000000000001111000001110000001111000000000111100000011100000001111
0000000011110000001110000000111100000000111000000011100000000111000000
0111100000001110000000011110000001111000000011100000000111100000011110
0000001111000000011110000001111000000001111000000111100000011110000000
0011110000011110000001111000000000011110000111100000011110000000000011
1100011110000001111100000000000111001111000000001111000000000000000011
1000000000011110000000000000011110000000000011110000000000001111000000
0000000111110000000011111100000000000001111111111111111100000000000000
0001111111111111100000000000000000000111111111100000000000000000000000
1111111000000000000000000000000000000000000000000000000000000000000000
0000000000000000000000000000000000000000000000000000000000000000000000
0000000000000000000000000000000000000000000000000000001111000000000000
0000000000000000111100000000000000000000000110001111000110000000000000
0000111101111110111100000000000000011111111111111111100000000000000111
1111111111111110000000000000001111111111111111000000000000000001111100
0011111000000000000000001111100000011111000000000000011111110000000011
1111100000000001111111000000001111111000000000011111110000000011111110
0000000001111111100000001111111000000000000011111000000111110000000000
0000000111110000111110000000000000000011111111111111110000000000000001
1111111111111111100000000000000111111111111111111000000000000000111101
1111101111000000000000000001100011110001100000000000000000000000111100
0000000000000000000000000011110000000000000000000000000000000000000000
0000000000000000000000000000000000000000000000000000000000000000000000
0000000000000000000000000000000000000000000000000000000000000000000000
0000000000000000000000000000000000000000000000000000000000000000000000
00000000000000000000