P1
# CREATOR: GIMP PNM Filter Version 1.1
48 720
0000000000000000000000000000000000000000000000000000000000000000000000
0000000000000000000000000000000000000000000000000000000000000000000000
0000000000000000000000000000000000000000000000000000000000000000000000
0000000011111000000000000000000000000000000000000000000111111100000000
0000000000000000000000000000000001111111000000000000000000000000000000
0000000000011111110000000000000000000000000000000000000000011111110000
0000000000000000000000000000000000110111111000000000000000000000000000
0000000000111111011100000000000000000000000000000000000000111111000000
0000000000000000000000000000000000111111111000000000000000000000000000
0000000000001111111111000000000000000000000000000000000000111111111111
0000000000000000000000000000000000001111111111111000000000000000000000
0000000000001111111111001111000000000000000000000000000000001111111100
0011111111111000000000000000000000000111111111000001111111111000000000
0000000000000001111111100000000111111110000000000000000000000001111111
1000000000000000000000000000000000000000011111111110000000000000000000
0000000000000000000011111111111000000000000000000000000000000000000000
1111111111000000000000000000000000000000101000000011111111000000000010
1000000000000001111111111000001111110000000011111111000000000011110101
1111000001111100000011111010111100000001110000000011100000111100000111
0000000011100000111000000000011100001111000011100000000001110000110000
0000000011100011110001110000000000001100011000000000000001100011110001
1000000000000001100110000000000000011000111100011000000000000001101100
0000000000000011001111001100000000000000011001100000000000000011001111
0011000000000000000010110000000000000001100011110011000000000000000111
0110000000000000001100111100110000000000000001100110000000000000011000
0110000110000000000000011001100000000000000110000000000110000000000000
0110001100000000000011000000000001110000000000001100001110000000000111
0000000000001110000000000111000001110000000011100000000000000111000000
0011100000001111010111110000000000000000111110011111000000000011111111
0000000000000000000111111111000000000000000101000000000000000000000000
0111000000000000000000000000000000000000000000000000000000000000000000
0000000000000000000000000000000000000000000000000000000000000000000000
0000000000000000000000000000000000000000000000000000000000000000000000
0000000000000000000000000000000000000000000000000000000000000000000000
0000000000000000000000000000000000000000000000000000000000000000000000
0000000000000000000000000000000000000000000000000000000000000000000000
0000000000000000000000000000000000000000000000000000000000000000000000
0000000000000000000000000000000000100000000000000000000000000000000000
0000000000111111000000000000000000000000000000000000000001111111000000
0000000000000000000000000000000000011111111000000000000000000000000000
0000000000000111111110000000000000000000000000000000000000000111111110
0000000000000000000000000000000000100001111111000000000000000000000000
0000000000111111001111110000000000000000000000000000000001111111111011
0000000000000000000000000000000001111111111111000000000000000000000000
0000000000111111111111110000000001000000000000000000000011111110011111
1110000001111000000000000000000000111111001111111111000011111000000000
0000000000001111000111111111110011111100000000000000000000001110011111
1100111111111110000000000000000000000000001111111000011111111100000000
0000000000000000000111111100000111111110000000000000000000000000011111
1111000000111110000000000000000000000000001111111111110000011100000000
0000000000000000000111111111111111000000000000000000000000000000011111
1100111111110000000000000000000000000000001111111000000111111000000000
0000000000000000001111111100000011111100000000000000000000000000011111
1100000001111111000000000000000000000000001111111000000111111100000000
0000000000000000000111111100000001111110000000000000000000000000000111
1100000000011111000000000000000000000000000000111000000000001100000000
0000000000000000000000000000000000000000000000000000000000000000000000
0000000000000000000000000000000000000000000000000000000000000000000000
0000000000000000000000000000000000000000000000000000000000000000000000
0000000000000000000000000000000000000000000000000000000000000000000000
0000000000000000000000000000000000000000000000000000000000000000000000
0000000000000000000000000000000000000000000000000000000000000000000000
0000000000000000000000000000000000000000000000000000000000000000000000
0000000000000000000000000000000000000000000000000000000000000000000000
0000000000000000000000000000000000000000000000000000000000000000000000
0000000000000000000000000000000000000000000000000000000000000000000000
0000000000000000000000000000000000000000000000011110000000000000000111
1000000000000000000000011111110000000000000011111110000000000000000001
1111111110000000000001111111111000000000000000111111111110000000000001
1111111111000000000000011111111111000000000000001111111111100000000000
1111111111000001111111100000111111111100000000011111111100001111111111
1110000011111111100000000111111100001111111111111111110000111111100000
0001111110001111111111111111111111000111111000000001111100011111111111
1111111111111000111110000000001110001111111111111111111111111100011100
0000000001000111111111100000000111111111100010000000000000001111111100
0000000000001111111100000000000000000111111100000000000000000011111110
0000000000000011111110000000001110000000011111110000000000000011111100
0000000011100000000011111100000000000001111110000000000011100000000001
1111100000000000011111000000000000111000000000001111100000000000111111
0000000000001110000000000011111100000000001111100000000000001110000000
0000011111000000000011111000000000000011100000000000011111000000000111
1110000000000000111000000000000111111000000001111100000000000000111000
0000000000111110000000011111000000000000001110000000000000111110000000
0111110000000000000011100000000000001111100000000111110000000000000011
1000000000000011111000000001111100000000000000111100000000000011111000
0000011111000000000000001111100000000000111110000000011111000000000000
0001111100000000001111100000000111111000000000000000111110000000011111
1000000001111110000000000000000111110000000111111000000000111110000000
0000000000111110000001111100000000001111110000000000000000011111000011
1111000000000011111100000000000000000011100000111111000000000001111110
0000000000000000010000011111100000000000001111110000000000000000000000
1111110000000000000011111110000000000000000000011111110000000000000001
1111110000000000000000001111111000000000000000011111111000000000000000
0111111110000000000000000011111111100000000000011111111100000000000000
0000011111111110000000011111111110000000000000000000000111111111111111
1111111110000000000000000000000000111111111111111111111100000000000000
0000000000000111111111111111111110000000000000000000000000000000111111
1111111100000000000000000000000000000000000001111111100000000000000000
0000000000000000000000000000000000000000000000000000000000000000000000
0000000000000000000000000000000000000000000000000000000000000000000000
0000000000000000000000000000000000000000000000000000000000000000000000
0000000100000000000000000000000000000000000000000000000111000000000000
0000000000000000000000000000000001111000000000000000000000000000000000
0000000000011111000000000000000000000000000000000000000000011111100000
0000000000000000000000000000000000000111111100000000000000000000000000
0000000000000001111111100000000000000000000000000000000000000001110011
1100000000000000000000000000000000000000011100011110000000000000000000
0000000000000000000111000011110000000000000000000000000000000000000111
0000011110000000000000000000000000000100000001110000001111000000000000
0000000000000011100000011100000111110000000000000000000000000011110000
0111000011111000000000000000000000000000011110000111000111110000000000
0000000000000000000011110001110011111000000000000000000000000000000001
1110011101111100000000000000000000000000000000001111111111111000000000
0000000000000000000000000001111111111100000000000000000000000000000000
0000001111111110000000000000000000000000000000000000000111111100000000
0000000000000000000000000000000000111110000000000000000000000000000000
0000000000011111110000000000000000000000000000000000000000111111111000
0000000000000000000000000000000000011111111111000000000000000000000000
0000000000001111111111111000000000000000000000000000000000011110011101
1111000000000000000000000000000000001111000111001111100000000000000000
0000000000000111100001110001111100000000000000000000000000001111000001
1100001111100000000000000000000000000011100000011100000111110000000000
0000000000000000010000000111000000111100000000000000000000000000000000
0001110000011110000000000000000000000000000000000001110000111100000000
0000000000000000000000000000011100011110000000000000000000000000000000
0000000111001111000000000000000000000000000000000000000111111110000000
0000000000000000000000000000000001111111000000000000000000000000000000
0000000000011111100000000000000000000000000000000000000000011111000000
0000000000000000000000000000000000000111100000000000000000000000000000
0000000000000001110000000000000000000000000000000000000000000001100000
0000000000000000000000000000000000000000000000000000000000000000000000
0000000000000000000000000000000000000000000000000000000000000000000000
0000000000000000000000000000000000000000001111111111110000000000000000
0000000000000000011111111111111111100000000000000000000000000001111100
0000000000111110000000000000000000000001111000000000000000000111100000
0000000000000000111000000000000000000000011100000000000000000011100000
0000000000000000000011100000000000000001110000000000000000000000000000
1100000000000000111000000000000000000000000000000110000000000000110000
0000000000110000000000000001110000000000011000000000000000111000000000
0000111110000000001100000000000000001111000000000001111111000000011100
0000000000000011111000000000111100110000000110000000000000000011111100
0000011110000110000011000000000000000000111011100000111000000110000011
0000000000000000001110011100011100000000110000110000000000000000001110
0011001110000000001100011000000000000000000011100000011100000000000100
0110000000000000110000111000001110000000000001100110000000000000111000
1110000111000000000000011001000000000000000111001110001110000000000000
0110110000000000000000111011100111000000000000000110110000000000000000
0111110011100000000000000000101100000000000000000011100111000000000000
0000001011000000000000000000010011100000000000000000001011000000000000
0000000001110000000000000000000010110000000000000000000011100000000000
0000000000101100000000000000000001110011000000000000000001100100000000
0000000000111001111000000000000000011001100000000000000001110010111100
0000000000000110011000000000000000111001100111100000000000000110011000
0000000000011100111000111100000000000011000011000000000000111000111000
0111100000000000110000110000000000011100001110000111000000000000110000
0110000000001110000011100011100000000000011000000110000000011100000011
1001110000000000000110000000110000001110000000111011100000000000001100
0000001110000111000000001111110000000000000111000000000110001110000000
0011111000000000000011100000000000111111000000000011110000000000000111
0000000000000111100000000000111000000000000011100000000000000011100000
0000001100000000000001110000000000000000011100000000000000000000000011
1000000000000000000011110000000000000000000011110000000000000000000000
1111000000000000000011110000000000000000000000000111111000000000011111
0000000000000000000000000000001111111111111111000000000000000000000000
0000000000011111111110000000000000000000000000000000000000000000000000
0000000000000000000000000000000000000000000000000000000000000000000000
0000000000000000000000000000000000000000000000000000000000000000000000
0000000000000000000000000000000000000000000000000000000000000000000000
0000000000000000000000000000000000000000000000000000000000000000000000
0000000000000000000000000000000000000000000000000000000000000000000000
0000000000000000000000000000000000000000000000000000000000000000000000
0000000000000000000000000000000000000000000000000000000000000000000000
0000000000000000000000000000000000000000000000000000000000000000000000
0000000000000000000000000000000000000000000000000000000000000000000000
0000000000000000000000000000000000000000000000000000000000000000000000
0000000000000000000000000000000000000000000000000000000000000000000000
0000000000000000000000000000000000000000000000000000000000000000000000
0000000000000000000000000000000000000000000001111111100011111111000111
1111100000000000000000011111111000111111110001111111100000000000000000
0111111110001111111100011111111000000000000000000111111110001111111100
0111111110000000000000000001111111100011111111000111111110000000000000
0000011111111000111111110001111111100000000000000000011111111000111111
1100011111111000000000000000000111111110001111111100011111111000000000
0000000000000000000000000000000000000000000000000000000000000000000000
0000000000000000000000000000000000000000000000000000000000000000000000
0000000000000000000000000000000000000000000000000000000000000000000000
0000000000000000000000000000000000000000000000000000000000000000000000
0000000000000000000000000000000000000000000000000000000000000000000000
0000000000000000000000000000000000000000000000000000000000000000000000
0000000000000000000000000000000000000000000000000000000000000000000000
0000000000000000000000000000000000000000000000000000000000000000000000
0000000000000000000000000000000000000000000000000000000000000000000000
0000000000000000000000000000000000000000000000000000000000000000000000
0000000000000000000000000000000000000000000000000000000000000000000000
0000000000000000000000000000000000000000000000000000000000000000000000
0000000000000000000000000000000000000000000000000000000000000000000000
0000000000000000000000000000000000000000000000000000000000000000000000
0000000000000000000000000000000000000000000000000000000000000000000000
0000000000000000000000000000000000000000000000000000000000000000000000
0000000000000000000000000000000000000000000000000000000000000000000000
0000000000000000000000000000000000000000000000000000000000000000000000
0000000000000000000000000000000000000000000000000000000000000000000000
0000000000000000000000000000000000000000000000000000000000000000000000
0000000000000000000000000000000000000000000000000000000000000000000000
0000000000000000000000000000000000000000000000000000000000000000000000
0000000000000000000000000000000000000000000000000000000000000000000000
0000000000000000000000000000000000000000000000000000000000000000000000
0000000000000000000000000000000000000000000000000000000000000000000000
0000000000000000000000000000000000000000000000000000000000000000000000
0000000000000000000000000000000000000000000000000000000000000000000000
0000000000000000000000000000000000000000000000000011111111000111111110
0011111111000000000000000000111111110001111111100011111111000000000000
0000001111111100011111111000111111110000000000000000001111111100011111
1110001111111100000000000000000011111111000111111110001111111100000000
0000000000111111110001111111100011111111000000000000000000111111110001
1111111000111111110000000000000000001111111100011111111000111111110000
0000000000000000000000000000000000000000000000000000000000000000000000
0000000000000000000000000000000000000000000000000000000000000000000000
0000000000000000000000000000000000000000000000000000000000000000000000
0000000000000000000000000000000000000000000000000000000000000000000000
0000000000000000000000000000000000000000000000000000000000000000000000
0000000000000000000000000000000000000000000000000000000000000000000000
0000000000000000000000000000000000000000000000000000000000000000000000
0000000000000000000000000000000000000000000000000000000000000000000000
0000000000000000000000000000000000000000000000000000000000000000000000
0000000000000000000000000000000000000000000000000000000000000000000000
0000000000000000000000000000000000000000000000000000000000000000000000
0000000000000000000000000000000000000000000000000000000000000000000000
0000000000000000000000000000000000000000000000000000000000000000000000
0000000000000000000000000000000000000000000000000000000000000000000000
0000000000000000000000000000000000000000000000000000000000000000000000
0000000000000000000000000000000000000000000000000000000000000000000000
0000000000000000000000000000000000000000000000000000000000000000000000
0000000000000000000000000111111111111111111100000000000000000000000000
0001111111111111111111000000000000000000000000000001111111111111111111
0000000000000000000000000000011111111111111111110000000000000000000000
0000000111111111111111111100000000000000000000000000000111111111111111
1111000000000000000000000000000001111111111111111111000000000000000000
0000000000011111111111111111110000000000000000000000000000011111111111
1111111100000000000000000000000000000111111111111111111100000000000000
0000000000000001111111111111111111000000000000000000000000000001111111
1111111111110000000000000000000000000000111111000000000111110000000000
0000000000000000011111100000000000111110000000000000000000000000011111
0000011100000111110000000000000000000000001111100000011100000011111000
0000000000000000000011110000000111000000011110000000000000000000000111
1100000001110000000011110000000000000000000001111000000001110000000011
1100000000000000000000011110000000011100000000111100000000000000000000
0111100000000111000000001111000000000000000000000111100000000111000000
0011110000000000000000000001111000000001111000000011110000000000000000
0000011110000000011111000000111100000000000000000000011110000000001111
1100001111000000000000000000000111110000000000111100001111000000000000
0000000000111100000000000011000111100000000000000000000000111110000000
0000000011111000000000000000000000000111110000000000000111110000000000
0000000000000001111110000000000011111100000000000000000000000000111111
0000000001111110000000000000000000000000000111111111111111111100000000
0000000000000000000001111111111111111111000000000000000000000000000001
1111111111111111110000000000000000000000000000011111111111111111110000
0000000000000000000000000111111111111111111100000000000000000000000000
0001111111111111111111000000000000000000000000000001111111111111111111
0000000000000000000000000000011111111111111111110000000000000000000000
0000000111111111111111111100000000000000000000000000000111111111111111
1111000000000000000000000000000001111111111111111111000000000000000000
0000000000011111111111111111110000000000000000000000000000000000000000
0000000000000000000000000000000000000000000000000000000000000000000000
0000000000000111111111111111111111111000000000000000000000001000000000
0000000000000001000000000000000000000100000000000000000000000000100000
0000000000000001000000000000000000000000001000000000000000000001000000
0000000000000000000010000000000000000000010000000000000000000000000010
0000000000000000000100000000000000000000000000100000000000000000000100
0000000000000000000000001000000000000000000001001111111111111111111111
0010000000000000000000010011111111111111111111110010000000000000000000
0100111111111111111111111100100000000000000000000100111111111111111111
1111001000000000000000000001001111111111111111111111001000000000000000
0000010011111111111111111111110010000000000000000000010011111111111111
1111111100100000000000000000000100111111111111111111111100100000000000
0000000001001111111111111111111111001000000000000000000001001111111111
1111111111110010000000000000000000010011111111111111111111110010000000
0000000000000100111111111111111111111100100000000000000000000100111111
1111111111111111001000000000000000000001001111111111111111111111001000
0000000000000000010011111111111111111111110010000000000000000000010011
1111111111111111111100100000000000000000000100111111111111111111111100
1000000000000000000001001111111111111111111111001000000000000000000001
0011111111111111111111110010000000000000000000010011111111111111111111
1100100000000000000000000100111111111111111111111100100000000000000000
0001001111111111111111111111001000000000000000000001001111111111111111
1111110010000000000000000000010011111111111111111111110010000000000000
0000000100111111111111111111111100100000000000000000000100111111111111
1111111111001000000000000000000001001111111111111111111111001000000000
0000000000010011111111111111111111110010000000000000000000010000000000
0000000000000000100000000000000000000100000000000000000000000000100000
0000000000000001000000000000110000000000001000000000000000000001000000
0000011110000000000010000000000000000000010000000000111111000000000010
0000000000000000000100000000001111110000000000100000000000000000000100
0000000001111000000000001000000000000000000001000000000000110000000000
0010000000000000000000010000000000000000000000000010000000000000000000
0010000000000000000000000001000000000000000000000001111111111111111111
1111100000000000000000000000000000000000000000000000000000000000000000
0000000011111111111111111111000000000000000000000000000111111111111111
1111111000000000000000000000000011111111111111111111111100000000000000
0000000001111111111111111111111111100000000000000000000011111111111111
1111111111111100000000000000000001111111111111111111111111111110000000
0000000000111111111111111111111111111111110000000000000001111111111111
1111111111111111111110000000000000111111111111111000000011111111111111
0000000000011111111111111110000000111111111111111000000000111111111111
1111100000001111111111111111000000011111111111111111100000001111111111
1111111000001111111111111111111000000011111111111111111100011111111111
1111111110000000111111111111111111100111111111111111111110000000111111
1111111111111001111111111111111111100000001111111111111111111001111111
1111111111111000000011111111111111111110011111111111111111111000000011
1111111111111111100111111111111111111110000000111111111111111111100111
1111111111111111100000001111111111111111111001111111111111111111100000
0011111111111111111110011111111111111111111000000011111111111111111110
0111111111111111111110000000111111111111111111100111111111111111111110
0000001111111111111111111001111111111111111111100000001111111111111111
1110011111111111111111111000000011111111111111111110011111111111111111
1110000000111111111111111111100111111111111111111110000000111111111111
1111111001111111111111111111100000001111111111111111111001111111111111
1111111111111111111111111111111110011111111111111111111111111111111111
1111111111100111111111111111111111111111111111111111111111100111111111
1111111111100000001111111111111111111000111111111111111111100000001111
1111111111111100000111111111111111111000000011111111111111111000000011
1111111111111110000000111111111111111100000000011111111111111110000000
1111111111111110000000000011111111111111100000001111111111111100000000
0000011111111111111111111111111111111110000000000000001111111111111111
1111111111111111000000000000000001111111111111111111111111111110000000
0000000000001111111111111111111111111111000000000000000000000111111111
1111111111111111100000000000000000000000111111111111111111111111000000
0000000000000000000111111111111111111111100000000000000000000000000011
1111111111111111110000000000000000000000000000000000000000000000000000
0000000000000000000000000000000000000000000000000000000000000000000000
0000000000000000000000000000000000000000000000000000000000000000000000
0000000000000000000000000000000000000000000000000000000000000000000000
0000000000000000000000000000000000000000000000000000000000000000000000
0000000000000000000000000000000000000000000000000000000000000000000000
0000000000000000000000000000000000000000000000000000000000000000000000
0000000110000000000000000000000000000000000000000000001110000000000000
0000000000000000000000000000000111000000000000000000000000000000000000
0000000011100000000000000000000000000000000000000000000111100000000000
0000111111111111111111111110000011110001111111110000111111111111111111
1111100001111100111111111100001111111111111111111111000011111001111111
1111000011111111111111111111100001111110011111111111000011111111111111
1111111000111111000111111111110000111100000000000000000001111111000000
0000111100001111000000000000000000111111100000000000111101111111000000
0000000000111111110000000000001111011111110000000000000001111111110000
0000000011110111111100000000000000111111111111111000000011110111111100
0000000000011111111111111100000000111101111111000000000000111111111111
1110000000001111011111110000000000011111111111111100000000001111011111
1100000000000000000111111110000000000011110111111100000000000000001111
1111000000000000111101111111000000000000000011111110000000000000111101
1111110000000000000001111111000000000000001111011111110000000000000011
1111100000000000000011110111111100000000000000111111000000000000000011
1100001111000000000000011111100000000000000000111100001111111111111100
0111110011111111111111111111000011111111111110001111100011111111111111
1111110000111111111111100111110001111111111111111111110000111111111111
0001111000011111111111111111111100000000000000000011100000000000000000
0000000000000000000000000001110000000000000000000000000000000000000000
0000011000000000000000000000000000000000000000000000110000000000000000
0000000000000000000000000000000000000000000000000000000000000000000000
0000000000000000000000000000000000000000000000000000000000000000000000
0000000000000000000000000000000000000000000000000000000000000000000000
0000000000000000000000000000000000000000000000000000000000000000000000
0000000000000000000000000000000000000000000000000000000000000000000000
0000000000000000000000000000000000000000000000000000000000000000000000
0000000000000000000000000000000000000000000000000000000000000000000000
0000000000000000000000000000000000000000000000000000000000000000000000
0000000000000000000000000000000000000000000000000000000000000000000000
0000000000000000000000000000000000000000000000000000000000000000000000
0000000000000000000000000000000000000000000000000000000000000000000000
0000000000000000000000000000000000000000000000000000000000000000000000
0000000000000000000000000000000000000000001111111111111111111111111111
1111111111111110000011111111111111111111111111111111111111111110000011
1111111111111111111111111111111111111111100000111111111111111111111111
1111111111111111111000001110000000000000000000000000000000000001111000
0011100000000000000000000000000000000000011110000011100011111000000000
0000000000000000000111101111111000111110000000000000000000000000000111
1011111110001111100000000000000000000000000001111011111110001111100000
0000000000000000000000011110111111100011111000000000000000000000000000
0111101111111000111110000000000000000000000000000111101111111000111110
0000000000000000000000000001111011111110001111100000000000000000000000
0000011110111111100011111000000000000000000000000000011110111111100011
1110000000000000000000000000000111101111111000111110000000000000000000
0000000001111011111110001111100000000000000000000000000001111011111110
0011111000000000000000000000000000011110000011100000000000000000000000
0000000000000111100000111000000000000000000000000000000000000111100000
1111111111111111111111111111111111111111111000001111111111111111111111
1111111111111111111110000011111111111111111111111111111111111111111110
0000111111111111111111111111111111111111111111100000000000000000000000
0000000000000000000000000000000000000000000000000000000000000000000000
0000000000000000000000000000000000000000000000000000000000000000000000
0000000000000000000000000000000000000000000000000000000000000000000000
0000000000000000000000000000000000000000000000000000000000000000000000
0000000000000000000000000000000000000000000000000000000000000000000000
0000000000000000000000000000000000000000000000000000000000000000000000
0000000000000000000000000000000000000000000000000000000000000000000000
0000000000000000000000000000000000000000000000000000000000000000000000
0000000000000000000000000000000000000000000000000000000000000000000000
0000000000000000000000000000000000000000000000000000000000000000000000
0000000000000000000000000000000000000000000000000000000000000000000000
0000000000000000000000000000000000000000000000000000000000000000000000
0000000000000000000000000000000000000000000000000000000000000000000000
0000000000000000000000000000000000000000000000000000000000000000000000
0000000000000000000000000000000000000000000000000000000000000000000000
0000000000000000000000000000000000001111111111111111111111111111111111
1111111110000011111111111111111111111111111111111111111110000011111111
1111111111111111111111111111111111100000111111111111111111111111111111
1111111111111000001110000000000000000000000000000000000001111000001110
0000000000000000000000000000000000011110000011100011111000111110000000
0000000000000111101111111000111110001111100000000000000000000111101111
1110001111100011111000000000000000000001111011111110001111100011111000
0000000000000000011110111111100011111000111110000000000000000000011110
1111111000111110001111100000000000000000000111101111111000111110001111
1000000000000000000001111011111110001111100011111000000000000000000001
1110111111100011111000111110000000000000000000011110111111100011111000
1111100000000000000000000111101111111000111110001111100000000000000000
0001111011111110001111100011111000000000000000000001111011111110001111
1000111110000000000000000000011110111111100000000000000000000000000000
0000000111100000111000000000000000000000000000000000000111100000111111
1111111111111111111111111111111111111000001111111111111111111111111111
1111111111111110000011111111111111111111111111111111111111111110000011
1111111111111111111111111111111111111111100000000000000000000000000000
0000000000000000000000000000000000000000000000000000000000000000000000
0000000000000000000000000000000000000000000000000000000000000000000000
0000000000000000000000000000000000000000000000000000000000000000000000
0000000000000000000000000000000000000000000000000000000000000000000000
0000000000000000000000000000000000000000000000000000000000000000000000
0000000000000000000000000000000000000000000000000000000000000000000000
0000000000000000000000000000000000000000000000000000000000000000000000
0000000000000000000000000000000000000000000000000000000000000000000000
0000000000000000000000000000000000000000000000000000000000000000000000
0000000000000000000000000000000000000000000000000000000000000000000000
0000000000000000000000000000000000000000000000000000000000000000000000
0000000000000000000000000000000000000000000000000000000000000000000000
0000000000000000000000000000000000000000000000000000000000000000000000
0000000000000000000000000000000000000000000000000000000000000000000000
0000000000000000000000000000000000000000000000000000000000000000000000
0000000000000000000000000000000000000000000000000000000000000000000000
0000000011111111111111111111111111111111111111111100000011111111111111
1111111111111111111111111111000000111111111111111111111111111111111111
1111110000001111111111111111111111111111111111111111110000001110000000
0000000000000000000000000000111100000011100000000000000000000000000000
0000001111000000111000111110001111100011111000000000001111001111111000
1111100011111000111110000000000011110011111110001111100011111000111110
0000000000111100111111100011111000111110001111100000000000111100111111
1000111110001111100011111000000000001111001111111000111110001111100011
1110000000000011110011111110001111100011111000111110000000000011110011
1111100011111000111110001111100000000000111100111111100011111000111110
0011111000000000001111001111111000111110001111100011111000000000001111
0011111110001111100011111000111110000000000011110011111110001111100011
1110001111100000000000111100111111100011111000111110001111100000000000
1111001111111000000000000000000000000000000000001111000000111000000000
0000000000000000000000000011110000001111111111111111111111111111111111
1111111100000011111111111111111111111111111111111111111100000011111111
1111111111111111111111111111111111000000111111111111111111111111111111
1111111111110000000000000000000000000000000000000000000000000000000000
0000000000000000000000000000000000000000000000000000000000000000000000
0000000000000000000000000000000000000000000000000000000000000000000000
0000000000000000000000000000000000000000000000000000000000000000000000
0000000000000000000000000000000000000000000000000000000000000000000000
0000000000000000000000000000000000000000000000000000000000000000000000
0000000000000000000000000000000000000000000000000000000000000000000000
0000000000000000000000000000000000000000000000000000000000000000000000
0000000000000000000000000000000000000000000000000000000000000000000000
0000000000000000000000000000000000000000000000000000000000000000000000
0000000000000000000000000000000000000000000000000000000000000000000000
0000000000000000000000000000000000000000000000000000000000000000000000
0000000000000000000000000000000000000000000000000000000000000000000000
0000000000000000000000000000000000000000000000000000000000000000000000
0000000000000000000000000000000000000000000000000000000000000000000000
0000000000000000000000000000000000000000000000000000000000000000000000
0000000000000000000000000000000000000000000000000000000000000000000000
0000000000000000000000000000000000000000000000000000000000000000000000
0000000000000000000000000000000000000000000000000000001111111111111111
1111111111111111111111111110000011111111111111111111111111111111111111
1111100000111111111111111111111111111111111111111111100000111111111111
1111111111111111111111111111111000001110000000000000000000000000000000
0000011110000011100000000000000000000000000000000000011110000011100011
1110001111100011111000111110000111101111111000111110001111100011111000
1111100001111011111110001111100011111000111110001111100001111011111110
0011111000111110001111100011111000011110111111100011111000111110001111
1000111110000111101111111000111110001111100011111000111110000111101111
1110001111100011111000111110001111100001111011111110001111100011111000
1111100011111000011110111111100011111000111110001111100011111000011110
1111111000111110001111100011111000111110000111101111111000111110001111
1000111110001111100001111011111110001111100011111000111110001111100001
1110111111100011111000111110001111100011111000011110111111100000000000
0000000000000000000000000111100000111000000000000000000000000000000000
0001111000001111111111111111111111111111111111111111111000001111111111
1111111111111111111111111111111110000011111111111111111111111111111111
1111111111100000111111111111111111111111111111111111111111100000000000
0000000000000000000000000000000000000000000000000000000000000000000000
0000000000000000000000000000000000000000000000000000000000000000000000
0000000000000000000000000000000000000000000000000000000000000000000000
0000000000000000000000000000000000000000000000000000000000000000000000
00000000000000000000000000000000000000000000000000