P1
# CREATOR: GIMP PNM Filter Version 1.1
16 448
0000000000000000000000000000000000000000000011000000000000001110000000
1100001110000000111001111100100111100110110111011111011000111111101111
0000110111000111000000001100011100000000000001100000000000000000000000
0000000000000000000000000000000000000000000000000001111110000000011111
1111100000111100001111000111000000001110011000011000011011100001100001
1111000001100000111100000110000011110000011100001111000000011000111110
0000001101110110000000000110011100000000111000111100001111000001111111
1110000000011111100000000000000000000001111111111111100111111111111110
0111000111011110011101011001111001110101010111100111010100001110011100
0111011110011111111111111001110001000011100111110101111110011100010000
1110011101111110111001110001000111100111111111111110000000000000000000
0001111110000000011111111110000011100000011100011100000000111001111000
0001111011111110001111111101110000101111110100000111111111000000011111
1111000111000110111100001100011011011000110001001001100010000001100011
1010000111000001111111111000000001111110000000011001100110000001010000
1010000111011001100110011101100110111001111111111111100100000000000010
0100000000000010010011110110001001000001001000100100011000100010010000
0100100010010011110010001001000000000000100100000000000010011111111111
1110000000000000000000011110011110000001111001111000001111111111110001
0000000000001001000000000000100100000000000010010000000000001001001001
1111101001011001011010100100100101101010010010011111101001000000000000
1001000000000000100100000000000010010000000000001000111111111111001111
1111111111111111111111111111111111111111111111111111111111111111111111
1111111100011000011011101110101101001111111011110110111110011110111011
1111101101111011101110101111101111000110000110111111111111111111111111
1111111111111111111111111101111111111111100000000000000000000000000000
0000000000000011100000000000001110000000000000111000000000111111000000
0011111110000000011000111100110000000111111110000001111001110000001111
1000100000011000110000000011000011000000011000011000000011000011000000
0000000000000000000011110000111100011000000000011001001111111100100001
1111111110000011100000011100001100010000110001100001000001100110000100
0001100110000110000110011000001100011001100000011001100011000000001110
0011100000001100000111000011100000001111111100000000011111100000000000
0100000000000000000000000000000001100000000000000111000000000000010110
0000000000010011000000001101011000000000011111000000000000111000000000
0000111000000000000111110000000000110101100000000000010011000000000001
0110000000000001110000000000000110000000000000000000000000000111111111
0000000111111111000000011111111100000001100000010000000100000001000000
0100000001000000010000000100000001000000010000000100000001000000010000
1111000000010001111100001111000111110001111100011110000111110000000000
0011100000000000000000011000000000000001100000000011001111001100001111
1111111100000111111111100000011100001110000011100000111100111110000001
1111111110000001111100111000000111000001110000111000000111111111100000
1111111111110000110011110011000000000110000000000000011000000000000000
0000000000000000000000000000000000000000000000000000000011111111111111
1010000000000000101011011011011011101101101101101110110110110110111011
0110110110111000000000000010111111111111111000000000000000000000000000
0000000000000000000000000000000000000000000000000000000000000000000000
0000000000000000000000000000000000000000000000001111111111111110100000
0000000010101101101100001110110110110000111011011011000011101101101100
0011100000000000001011111111111111100000000000000000000000000000000000
0000000000000000000000000000000000000000000000000000000000000000000000
0000000000000000000000001111111111111110100000000000001010110110000000
1110110110000000111011011000000011101101100000001110000000000000101111
1111111111100000000000000000000000000000000000000000000000000000000000
0000000000000000000000000000000000000000000000000000001111111111111110
1000000000000010101100000000001110110000000000111011000000000011101100
0000000011100000000000001011111111111111100000000000000000000000000000
0000000000000000000000000000000000000000000000000000000000000000000000
0000000010000011111110011011101000000011000010101100011000001110110011
1110001110110001110000111011000110000011100000110000001011110010011111
1000000100000000000000000000000000000000000000000000000000000000000000
0000000000000000000000000000000000000000000000000000001000001111111001
1011101000000011000010100000011000001110000011111000111000000111000011
1000000110000011100000110000001011110010011111100000000000000000000000
0000000000000000000000000000000000000000000000000000000000000000111111
0000000001111111000000000111111000000000011110000000000001111000000000
0111111110000000011111111000000000111111100000000001111000000000000111
1000000000000111100000000000011110000000000001111000000000000111100000
0000000111100000000000011100000000000000000000000000000000000000000000
0000011000000000000011110000000000001111110001000001111111110111110111
1111110011111111111110001111111111111000011111111111000000011111111100
0000011111111000000001111111000001111111111000000011111110000000000000
0000000000000000000000000000111111111111100111111111111111111111111111
1111111111111111111111111111111111111111111111111111111111111111111111
1111111111111111111111111111111111111111111111011111111111111100111111
1111111000111100000000000111000000000000000000000000000000110000000000
0001111000000000000111100000000000111110000000000001111000000000000111
1000000000000111000000000000001110000000000000111100000000000001111000
0000000000111100111000000001111111111000000011111111110000000011111110
0000000001111100000000000000000000111011101110000010101010101100011011
1011101110011111111111111001101110111011100100000000000110010000000000
0010010000010000001001000000000000100100001100000010010000010000001001
0000010000001001000011100000100100000000000010010000000000001001111111
1111111000000000000000000000000000000000011111111111111010111111111111
1111101111111110111110111111110111111110111110111111111101111111111111
1110011111111111111111111111111111111111111111111111111111111111111111
1111110000000000000000000000000000000000000000000000000000000000000000
0000000000000000000000000011000000000000011110000000100001111100000111
0001111100001111100111110000111110001110000011111001001000001111100111
0000000100001111000000011110011000000001111000000000000011100000000000
0001000000000000000000000000000000000000000000000000011100000000000111
1111000000001100000110000001100010001100000100001000010000110000100001
1000110000100001100011011110000110001100000000010000010000000011000001
1000000110000000111010110000000001111110000000000000000000000000000000
0000000000000000000000000000001000000000000001100000000000000111000000
0000101111000000000011111110000000001111111100000000111111110000000011
1111110000000001111111000000000011111100000000000111100000000000011110
0000000000001000000000000000000000000000000000000000000000000000000000
0000000000000000000000000000000000000000000000000000000000000001111111
1111110001111111111111000101010101010100010001000100010001000100010001
0001000000000001000111111111111100000000000000000000000000000000000000
0000000000000000000000000000