P1
# CREATOR: GIMP PNM Filter Version 1.1
16 288
0000000000000000000000000000000000000000000000000000000000001100000000
0000001100000000110000111000000011100111100010001110011011011101101101
0000011111101111000011011100011100000000110001110000000000000110000000
0000000000000000000000000000000000000000000000000000111100000000011111
1111000000111100001111000011000000001100011000011000011001100001100001
1011000001000000111100000110000011110000011100001111000000011000110110
0000001101100110000000000110001100000000110000111100001111000000111111
1100000000001111100000000000000000000001111111111111100111111111111110
0111100111011110011101101001111001110110010111100111101110011110011111
0111111110011111111101111001111001001111100111110110011110011111011110
1110011100011001111001111111111111100111111111111110000000000000000000
0000000000000000000000000000000000011111000000000011100111000000010000
0001100000111000000111000011111000111110010111000100111001001000011111
1001000000011110100110001100110110001000110001010000100010000111000001
0010000010000000111001110000000000111110000000000000000000000000110110
1100000001010000101000001101100110110000110111011011000011111111111100
0010000000000100001000100000010000100011011001000010001000100100001000
0100100100001000110010010000100000000001000010000000000100001111111111
1100000000000000000000000000000000000000110001010000000011100111000000
0111111111100000100000000001000010000000000100001000000000010000101000
1001010000101001001001000010100110010100001000000000010000100000000001
0000100000000001000010000000000100000111111111100000000000000000000000
0000000000000111111111111110011111111111111001111111111111100111111111
1111100110011100111110011110111101001001111011110110100111101110111110
0101101101111010011011101011111001111111111111100111111111111110011111
1111111110011111111111111000000000000000000000000000000000000000000000
0000000000000011100000000000001110000000000000111000000000111110000000
0001101110000000001101111101100000001110011100000001111001100000011101
1100000000110000110000000110001110000000010000010000000000000000000000
0000000000000000000000011111100000000001111110000000000111111000000000
0111111000000000010000100000000010010001000000010001000010000001000100
0010000001000010001000000100000110100000001000000100000000010000100000
0000011111100000000001111110000000000111111000000000011111100000000110
0000011000001111000001110001110011111011100100111111110010000110000001
1100001100001000110000100001000001100110000110000110011000001000011001
1000001100011001100000011001100010000000100110001100000000110000011000
0001100000001111111100000000001111100000000000000000000000000001100000
0000000001100000000000000101100000000000010010000000001101001000000000
0011010000000000001110000000000000011000000000000111110000000000010100
1000000000000100110000000000010110000000000001110000000000000100000000
0000000000000000000000000000000000000000001111000000001111111100000000
1111111100000000111000010000000010000001000000001000000100000000100000
0100000000100000010000000010000001000000001000111100000011100011110000
0111100011110000011110000000000001110000000000000000000000000000000000
0000000000000000000000000111111111111100010010100101010001011111110111
1101010110110101110101111111111101010100001000010101111111111111000000
0000000000000000000000000000000000000000000000000000000000000000000000
0000000000000000000000000000000000000000000000000000000000000000000000
1111111111111100011010100100010011010111100011110111111111000111111101
1010000110010100101000011011111111111111000000000000000000000000000000
0000000000000000000000000000000000000000000000000000000000000000000000
0000000000000000000000000000000000000000000000111111111111110010101010
0000110011110110000011101011011000000111101111100000111011000100000001
1011111111111111000000000000000000000000000000000000000000000000000000
0000000000000000000000000000000000000000000000000000000000000000000000
0000000000000000000000011111111111111001001000000001000101100000000111
0101100000000111010110000000011101010000000001010111111111111110000000
0000000000000000000000000000000000000000000000000000000000000000000000
0000000000000000000000000000000000000000000000000000000000000010000001
1111111111110001000000110001000100001111000111010000111110011101000001
1000010101000011000001010111111111111100000001000000000000000000000000
0000000000000000000000000000000000000000000000000000000000000000000000
0000000000000000000000000000000000000010000011111111111111000101001011
0011001101111110000111011100111110010111011101100001110100001100000100
1111111111111100000001000000010000001000000000000000000000000000000000
0000000000000000000000000000000000000000000000000000000000